<svg width="2268" height="5476" viewBox="0 0 2268 5476" fill="none" xmlns="http://www.w3.org/2000/svg">
<path fill-rule="evenodd" clip-rule="evenodd" d="M0 181.877L80.3261 150.713C193.722 88.3858 409.174 -25.8815 635.966 5.28236C851.419 46.8341 1078.21 233.817 1293.66 296.145C1520.45 358.472 1735.91 285.757 1962.7 181.877C2178.15 67.61 2165.59 78.8169 2267.65 6.10132V503.903C2165.59 503.903 2178.15 503.903 1962.7 503.903C1735.91 503.903 1520.45 503.903 1293.66 503.903C1078.21 503.903 851.419 503.903 635.966 503.903C409.174 503.903 193.722 503.903 80.3261 503.903L0 503.903V181.877Z" fill="#FDFEB8"/>
<path d="M0 443.307H2267.65V1807.46H0V443.307Z" fill="#FDFEB8"/>
<path fill-rule="evenodd" clip-rule="evenodd" d="M0 1540.88L80.3261 1509.71C193.722 1447.39 409.174 1333.12 635.966 1364.28C851.419 1405.83 1078.21 1592.82 1293.66 1655.14C1520.45 1717.47 1735.91 1644.76 1962.7 1540.88C2178.15 1426.61 2165.59 1437.82 2267.65 1365.1V1862.9C2165.59 1862.9 2178.15 1862.9 1962.7 1862.9C1735.91 1862.9 1520.45 1862.9 1293.66 1862.9C1078.21 1862.9 851.419 1862.9 635.966 1862.9C409.174 1862.9 193.722 1862.9 80.3261 1862.9L0 1862.9V1540.88Z" fill="#8CB6DE"/>
<path d="M0 1802.31H2267.65V3166.46H0V1802.31Z" fill="#8CB6DE"/>
<path fill-rule="evenodd" clip-rule="evenodd" d="M0 2838.88L80.3261 2807.71C193.722 2745.39 409.174 2631.12 635.966 2662.28C851.419 2703.83 1078.21 2890.82 1293.66 2953.14C1520.45 3015.47 1735.91 2942.76 1962.7 2838.88C2178.15 2724.61 2165.59 2735.82 2267.65 2663.1V3160.9C2165.59 3160.9 2178.15 3160.9 1962.7 3160.9C1735.91 3160.9 1520.45 3160.9 1293.66 3160.9C1078.21 3160.9 851.419 3160.9 635.966 3160.9C409.174 3160.9 193.722 3160.9 80.3261 3160.9L0 3160.9V2838.88Z" fill="#87C8A0"/>
<path d="M0 3100.31H2267.65V4464.46H0V3100.31Z" fill="#87C8A0"/>
<path fill-rule="evenodd" clip-rule="evenodd" d="M0 4096.88L80.3261 4065.71C193.722 4003.39 409.174 3889.12 635.966 3920.28C851.419 3961.83 1078.21 4148.82 1293.66 4211.14C1520.45 4273.47 1735.91 4200.76 1962.7 4096.88C2178.15 3982.61 2165.59 3993.82 2267.65 3921.1V4419C2165.59 4419 2178.15 4418.9 1962.7 4418.9C1735.91 4418.9 1520.45 4418.9 1293.66 4418.9C1078.21 4418.9 851.419 4418.9 635.966 4418.9C409.174 4418.9 193.722 4418.9 80.3261 4418.9L0 4419V4096.88Z" fill="#8AC6D6"/>
<path d="M0 4419L2267.65 4419V5162L2260.5 5167L2236.5 5184L2224.5 5192.5L2209 5203L2196 5212L2188 5217L2178.5 5222.5L2170 5227.5L2160.5 5232.5L2153 5237.5L2144.5 5242L2136 5246L2129 5250L2121.5 5254L2113 5259L2104.5 5263.5L2096.5 5267.5L2088 5272L2080.5 5275.5L2073.5 5279.5L2065.5 5283.5L2056 5288.5L2042.5 5296L2030.5 5302L2019.5 5308L2006.5 5315L1991 5323L1983 5327.5L1971.5 5333.5L1952 5343.5L1928.5 5353.5L1904.5 5364L1880.5 5375.5L1858.75 5384.3L1834 5393.5L1813 5403L1790.25 5410.75L1767.5 5418.5L1740 5427.25L1712.5 5436L1689 5443.5L1665 5450L1647.5 5453.5L1636.5 5456L1625 5458.5L1611.5 5461.5L1596.5 5464L1581 5466.5L1568.5 5468L1556 5469.5L1540 5471.5L1524 5473L1514.5 5474.5H1503.5L1481.5 5476H1456.5L1433.5 5474.5L1400 5472L1374.5 5470L1361 5467.5L1350.5 5466L1341 5464.5L1329 5462L1315.5 5459L1302.5 5455.5L1288 5451.1L1272.5 5446.5L1256 5440.5L1243 5435.5L1230.5 5431L1214.5 5425L1198 5418L1184.5 5412L1164.5 5403L1137 5389L1124 5383L1112 5377L1097.5 5370L1081.5 5362.5L1064.5 5353L1046.5 5343.5L1031.5 5335.5L1022 5330L1009 5323L1000.5 5318.5L986.5 5311L977.5 5305.5L970.5 5302.5L964 5298.5L957 5295L951 5292L944 5288L936.5 5284L927 5279L915.5 5272.5L901.5 5265.5L896 5262.5L887.5 5258L881.5 5255L873 5250.5L862 5245L847.5 5238L838.5 5234L828 5228.5L818 5224L807.5 5219L797 5214.5L789 5211L778.5 5206.5L772.5 5204L766.5 5201.5L755 5197L746 5193.5L737.5 5190.5L723 5185L698 5177L691.5 5175L688.5 5174L683 5172.5L677.5 5171L672 5169.5L664.5 5167.5L655.5 5165.5L644.5 5163L633 5161L621 5159.5L611.5 5158.5L593.5 5157L565.5 5156L537 5156.5L499.5 5158.5L458.5 5163.6L443.5 5166.1L411 5172.6L383.5 5179.1L347.5 5189.1L313.5 5200.1L289.5 5208.6L244.5 5226.1L221 5236.1L196.5 5247.1L139 5275.6L109.5 5291.1L80 5307.1L63 5313.6L35.5 5324.1L13.5 5332.6L0 5337.6V4419Z" fill="#8AC6D6"/>
</svg>
