<svg width="830" height="7" viewBox="0 0 830 7" fill="none" xmlns="http://www.w3.org/2000/svg">
<path d="M20 3.5C33.4833 0.166667 46.9667 0.166667 60.45 3.5C73.9333 6.83333 87.4167 6.83333 100.9 3.5C114.383 0.166667 127.867 0.166667 141.35 3.5C154.833 6.83333 168.317 6.83333 181.8 3.5C195.283 0.166667 208.767 0.166667 222.25 3.5C235.733 6.83333 249.217 6.83333 262.7 3.5C276.183 0.166667 289.667 0.166667 303.15 3.5C316.633 6.83333 330.117 6.83333 343.6 3.5C357.083 0.166667 370.567 0.166667 384.05 3.5C397.533 6.83333 411.017 6.83333 424.5 3.5C437.983 0.166667 451.467 0.166667 464.95 3.5C478.433 6.83333 491.917 6.83333 505.4 3.5C518.883 0.166667 532.367 0.166667 545.85 3.5C559.333 6.83333 572.817 6.83333 586.3 3.5C599.783 0.166667 613.267 0.166667 626.75 3.5C640.233 6.83333 653.717 6.83333 667.2 3.5C680.683 0.166667 694.167 0.166667 707.65 3.5C721.133 6.83333 734.617 6.83333 748.1 3.5C761.583 0.166667 775.067 0.166667 788.55 3.5C802.033 6.83333 815.517 6.83333 829 3.5" stroke="#FDFEB8" stroke-width="2"/>
<path d="M11 3.5C24.4667 0.166667 37.9333 0.166667 51.4 3.5C64.8667 6.83333 78.3333 6.83333 91.8 3.5C105.267 0.166667 118.733 0.166667 132.2 3.5C145.667 6.83333 159.133 6.83333 172.6 3.5C186.067 0.166667 199.533 0.166667 213 3.5C226.467 6.83333 239.933 6.83333 253.4 3.5C266.867 0.166667 280.333 0.166667 293.8 3.5C307.267 6.83333 320.733 6.83333 334.2 3.5C347.667 0.166667 361.133 0.166667 374.6 3.5C388.067 6.83333 401.533 6.83333 415 3.5C428.467 0.166667 441.933 0.166667 455.4 3.5C468.867 6.83333 482.333 6.83333 495.8 3.5C509.267 0.166667 522.733 0.166667 536.2 3.5C549.667 6.83333 563.133 6.83333 576.6 3.5C590.067 0.166667 603.533 0.166667 617 3.5C630.467 6.83333 643.933 6.83333 657.4 3.5C670.867 0.166667 684.333 0.166667 697.8 3.5C711.267 6.83333 724.733 6.83333 738.2 3.5C751.667 0.166667 765.133 0.166667 778.6 3.5C792.067 6.83333 805.533 6.83333 819 3.5" stroke="#87C8A0" stroke-width="2"/>
<path d="M1 3.5C14.55 0.166667 28.1 0.166667 41.65 3.5C55.2 6.83333 68.75 6.83333 82.3 3.5C95.85 0.166667 109.4 0.166667 122.95 3.5C136.5 6.83333 150.05 6.83333 163.6 3.5C177.15 0.166667 190.7 0.166667 204.25 3.5C217.8 6.83333 231.35 6.83333 244.9 3.5C258.45 0.166667 272 0.166667 285.55 3.5C299.1 6.83333 312.65 6.83333 326.2 3.5C339.75 0.166667 353.3 0.166667 366.85 3.5C380.4 6.83333 393.95 6.83333 407.5 3.5C421.05 0.166667 434.6 0.166667 448.15 3.5C461.7 6.83333 475.25 6.83333 488.8 3.5C502.35 0.166667 515.9 0.166667 529.45 3.5C543 6.83333 556.55 6.83333 570.1 3.5C583.65 0.166667 597.2 0.166667 610.75 3.5C624.3 6.83333 637.85 6.83333 651.4 3.5C664.95 0.166667 678.5 0.166667 692.05 3.5C705.6 6.83333 719.15 6.83333 732.7 3.5C746.25 0.166667 759.8 0.166667 773.35 3.5C786.9 6.83333 800.45 6.83333 814 3.5" stroke="#8AC6D6" stroke-width="2"/>
<path d="M1 3C14.3667 0.333333 27.7333 0.333333 41.1 3C54.4667 5.66667 67.8333 5.66667 81.2 3C94.5667 0.333333 107.933 0.333333 121.3 3C134.667 5.66667 148.033 5.66667 161.4 3C174.767 0.333333 188.133 0.333333 201.5 3C214.867 5.66667 228.233 5.66667 241.6 3C254.967 0.333333 268.333 0.333333 281.7 3C295.067 5.66667 308.433 5.66667 321.8 3C335.167 0.333333 348.533 0.333333 361.9 3C375.267 5.66667 388.633 5.66667 402 3C415.367 0.333333 428.733 0.333333 442.1 3C455.467 5.66667 468.833 5.66667 482.2 3C495.567 0.333333 508.933 0.333333 522.3 3C535.667 5.66667 549.033 5.66667 562.4 3C575.767 0.333333 589.133 0.333333 602.5 3C615.867 5.66667 629.233 5.66667 642.6 3C655.967 0.333333 669.333 0.333333 682.7 3C696.067 5.66667 709.433 5.66667 722.8 3C736.167 0.333333 749.533 0.333333 762.9 3C776.267 5.66667 789.633 5.66667 803 3" stroke="#8CB6DE" stroke-width="2"/>
</svg>
